<?xml version="1.0" encoding="UTF-8"?>
<svg id="Layer_1" xmlns="http://www.w3.org/2000/svg" version="1.1" viewBox="0 0 36 36">
  <!-- Generator: Adobe Illustrator 30.2.1, SVG Export Plug-In . SVG Version: 2.1.1 Build 1)  -->
  <defs>
    <style>
      .st0, .st1, .st2 {
        stroke: #4a6741;
        stroke-width: 1.5px;
      }

      .st0, .st3, .st2 {
        fill: none;
      }

      .st1 {
        fill: #f5f0e8;
      }

      .st4 {
        fill: #4a6741;
        isolation: isolate;
        opacity: .9;
      }

      .st3 {
        stroke: #f5f0e8;
      }

      .st3, .st2 {
        stroke-linecap: round;
      }

      .st2 {
        stroke-linejoin: round;
      }
    </style>
  </defs>
  <g>
    <circle class="st1" cx="18" cy="18" r="17"/>
    <g>
      <path class="st4" d="M18,29s-8-6-8-13,3.6-8,8-8,8,3.6,8,8c0,7-8,13-8,13Z"/>
      <path class="st3" d="M18,29s0-10,4-15"/>
      <path class="st3" d="M18.4,23c-2-3-5-4-5-4"/>
    </g>
  </g>
  <g>
    <path class="st0" d="M-942.1-358.5c-19.6,0-34.2-16.1-27.5-37.5s24.7-41.5,27.5-41.5,19.6,16.3,27.5,41.5-7.9,37.5-27.5,37.5Z"/>
    <line class="st2" x1="-942.1" y1="-417.6" x2="-942.1" y2="-358.5"/>
    <g>
      <path class="st2" d="M-942.1-370c6.9,0,16.1-6.2,18.8-13.3"/>
      <path class="st2" d="M-942.1-388.1c6.1,0,14.2-5.8,16.6-12.5"/>
      <path class="st2" d="M-942.1-405.3c3.7,0,8.7-3.4,10.2-7.3"/>
    </g>
    <g>
      <path class="st2" d="M-942.1-370c-6.9,0-16.1-6.2-18.8-13.3"/>
      <path class="st2" d="M-942.1-388.1c-6.1,0-14.2-5.8-16.6-12.5"/>
      <path class="st2" d="M-942.1-405.3c-3.7,0-8.7-3.4-10.2-7.3"/>
    </g>
  </g>
</svg>